#!OML:ASF H:\ManfredObstacles\Project 1\Capture day 1\Session 1\Male.ASF
:FULLY-SPECIFIED
:DEGREES
481
root 0.510571 16.5934 -12.9086 -174.284 2.12418 -184.56
lowerback -7.75966 -0.764347 -7.02254
upperback 4.26775 0.040697 -1.28804
thorax 8.93971 -0.294662 2.58737
lowerneck -1.13037 -1.46602 -6.24299
upperneck -3.95241 -1.47897 9.4324
head -0.939067 -0.661437 4.22677
rclavicle -6.80837e-015 -1.74931e-014
rhumerus -32.7308 -17.7121 -79.5586
rradius 30.745
rwrist 31.5425
rhand -1.56114 -3.58421
rfingers 7.12502
rthumb 24.0943 -32.0914
lclavicle -6.80837e-015 -1.74931e-014
lhumerus -18.5626 7.69906 85.1947
lradius 23.5002
lwrist -23.0337
lhand -10.3803 8.20615
lfingers 7.12502
lthumb 15.6174 37.5957
rfemur -20.8868 -7.83309 12.2953
rtibia 69.8055
rfoot -8.36791 9.107
rtoes 1.39656
lfemur -10.6147 4.43921 -28.8125
ltibia 9.3882
lfoot 3.31649 -13.5036
ltoes 4.06779
482
root 0.492703 16.5957 -13.0199 -173.672 1.77693 -183.94
lowerback -8.47681 -0.913121 -6.47681
upperback 4.3135 -0.213779 -0.972142
thorax 9.42871 -0.422822 2.57425
lowerneck -1.26095 -1.39033 -6.43646
upperneck -4.04431 -1.36281 9.43933
head -0.954653 -0.59745 4.26801
rclavicle -2.70844e-015 -1.19271e-015
rhumerus -32.4239 -17.7202 -79.3852
rradius 30.5641
rwrist 31.0158
rhand -1.49004 -3.58318
rfingers 7.12502
rthumb 24.1624 -32.0813
lclavicle -2.70844e-015 -1.19271e-015
lhumerus -17.6566 7.18704 85.8219
lradius 23.714
lwrist -22.6798
lhand -10.1606 8.21901
lfingers 7.12502
lthumb 15.829 37.5919
rfemur -23.3621 -7.59675 13.2534
rtibia 69.9837
rfoot -9.88698 8.5191
rtoes 2.63691
lfemur -11.8641 4.34826 -28.2689
ltibia 11.4248
lfoot 2.16176 -14.1795
ltoes 4.65412
483
root 0.476969 16.5889 -13.1341 -173.167 1.45416 -183.37
lowerback -8.87858 -0.985981 -5.85162
upperback 4.16378 -0.408609 -0.774342
thorax 9.50662 -0.495012 2.40015
lowerneck -1.42394 -1.44809 -6.47519
upperneck -3.84961 -1.4479 9.46963
head -0.854128 -0.635972 4.28248
rclavicle 0 -4.17448e-015
rhumerus -32.7409 -17.7779 -79.1673
rradius 30.5912
rwrist 30.6777
rhand -1.36177 -3.57671
rfingers 7.12502
rthumb 24.2854 -32.0585
lclavicle 0 -4.17448e-015
lhumerus -17.3156 6.29145 86.2792
lradius 24.007
lwrist -22.3753
lhand -9.96451 8.2805
lfingers 7.12502
lthumb 16.0178 37.6383
rfemur -25.6041 -7.34424 14.1287
rtibia 69.7386
rfoot -11.2624 7.71663
rtoes 4.67409
lfemur -12.8858 3.90602 -27.692
ltibia 13.2871
lfoot 0.961035 -14.4627
ltoes 4.88763
484
root 0.466277 16.5745 -13.2462 -172.804 1.00471 -182.837
lowerback -9.01517 -1.07049 -5.23972
upperback 3.96112 -0.631851 -0.629459
thorax 9.36998 -0.571958 2.17309
lowerneck -1.44789 -1.52459 -6.50558
upperneck -3.68855 -1.55876 9.58279
head -0.786695 -0.690788 4.32696
rclavicle -7.20594e-016 7.95139e-016
rhumerus -33.3328 -17.8328 -78.9728
rradius 30.7266
rwrist 30.6194
rhand -1.27387 -3.54346
rfingers 7.12502
rthumb 24.3697 -32.0139
lclavicle -7.20594e-016 7.95139e-016
lhumerus -17.2335 5.38549 86.6367
lradius 24.2737
lwrist -22.2076
lhand -9.92872 8.30934
lfingers 7.12502
lthumb 16.0523 37.6644
rfemur -27.5026 -7.1606 14.9502
rtibia 69.1214
rfoot -12.7037 6.68388
rtoes 5.23864
lfemur -13.6586 3.53513 -27.1385
ltibia 14.95
lfoot -0.130409 -14.8653
ltoes 4.80366
485
root 0.46126 16.5599 -13.3541 -172.408 0.461825 -182.4
lowerback -9.28923 -1.26588 -4.88213
upperback 3.86196 -0.959388 -0.424461
thorax 9.44213 -0.72193 2.13147
lowerneck -1.45239 -1.50754 -6.49011
upperneck -3.76562 -1.52924 9.55994
head -0.813773 -0.675662 4.31649
rclavicle -1.06847e-015 -1.23246e-014
rhumerus -33.5384 -17.6189 -78.9203
rradius 30.7248
rwrist 30.5545
rhand -1.32816 -3.52721
rfingers 7.12502
rthumb 24.3176 -32.0047
lclavicle -1.06847e-015 -1.23246e-014
lhumerus -16.8984 4.83641 87.0143
lradius 24.2484
lwrist -22.0668
lhand -10.0102 8.18247
lfingers 7.12502
lthumb 15.9738 37.5438
rfemur -29.4311 -6.99485 15.6537
rtibia 68.115
rfoot -13.8287 5.67983
rtoes 5.54498
lfemur -14.394 3.25774 -26.6775
ltibia 16.3866
lfoot -1.17872 -15.4485
ltoes 4.21318
486
root 0.458932 16.5446 -13.4673 -171.978 -0.00625339 -182.057
lowerback -9.7008 -1.29823 -4.49902
upperback 3.7651 -1.1496 -0.330603
thorax 9.57966 -0.838933 1.97039
lowerneck -1.2944 -1.52988 -6.469
upperneck -3.95178 -1.54658 9.63037
head -0.900721 -0.6875 4.34149
rclavicle 5.96354e-016 2.98177e-015
rhumerus -33.839 -17.7017 -78.8544
rradius 30.7436
rwrist 30.5239
rhand -1.34812 -3.55313
rfingers 7.12502
rthumb 24.2985 -32.0331
lclavicle 5.96354e-016 2.98177e-015
lhumerus -16.6136 4.03909 87.3683
lradius 24.1716
lwrist -21.7966
lhand -9.98431 8.12801
lfingers 7.12502
lthumb 15.9988 37.4874
rfemur -31.2954 -6.77199 16.172
rtibia 66.8209
rfoot -14.9269 5.09413
rtoes 9.48676
lfemur -15.0158 2.9272 -26.2916
ltibia 17.5635
lfoot -1.9375 -15.7914
ltoes 4.62467
487
root 0.454949 16.5306 -13.5834 -171.799 -0.346957 -181.78
lowerback -9.86606 -1.3192 -4.12113
upperback 3.70453 -1.2194 -0.290954
thorax 9.60501 -0.847673 1.78615
lowerneck -1.08079 -1.56092 -6.4264
upperneck -4.10629 -1.57984 9.72328
head -0.986122 -0.709359 4.37086
rclavicle -1.56543e-015 -1.98785e-016
rhumerus -34.3067 -17.9682 -78.6898
rradius 30.8074
rwrist 30.6673
rhand -1.1952 -3.5662
rfingers 7.12502
rthumb 24.4451 -32.0265
lclavicle -1.56543e-015 -1.98785e-016
lhumerus -16.5104 3.33759 87.7084
lradius 24.1918
lwrist -21.6554
lhand -9.85175 8.23872
lfingers 7.12502
lthumb 16.1264 37.5878
rfemur -32.7653 -6.41182 16.4634
rtibia 65.2254
rfoot -16.1805 4.94676
rtoes 15.2733
lfemur -15.2112 2.6739 -25.9708
ltibia 18.5007
lfoot -2.59573 -16.0275
ltoes 5.45513
